# xmcd CD database file
# Generated: Sat Jul 26 13:10:31 2003 by KSCD
# 
# Track frame offsets:
#       150
#       21710
#       34232
#       49295
#       73767
#       85482
#       103225
#       119025
#       141707
#       155567
#       175882
#
# Disc length: 2729 seconds
#
# Revision: 1
# Processed by: cddbd v1.4PL0 Copyright (c) Steve Scherf et al.
# Submitted via: Kscd 1.3.3
#
DISCID=b30aa70b
DTITLE=SUMAj  LLACTA - Que Siga La Fiesta
DYEAR=1900
DGENRE=
TTITLE0=SIKURI
TTITLE1=ENCUENTROS
TTITLE2=TIERRA DE CONDORES
TTITLE3=EL CONDOR PASA
TTITLE4=ODIO Y AMOR
TTITLE5=ARREPENTIMIENTO
TTITLE6=QUE SIGA LA FIESTA
TTITLE7=EL SARIRI DEL ANDE
TTITLE8=POU UN DOLLAR MSA
TTITLE9=LLUVIA PITUCA
TTITLE10=LAMBADA(LLORANDO SE FUE)
EXTD=
EXTT0=
EXTT1=
EXTT2=
EXTT3=
EXTT4=
EXTT5=
EXTT6=
EXTT7=
EXTT8=
EXTT9=
EXTT10=
PLAYORDER=
